<svg width="18" height="16" viewBox="0 0 18 16" fill="none" xmlns="http://www.w3.org/2000/svg">
<path fill-rule="evenodd" clip-rule="evenodd" d="M8.29604 0.658319C8.3536 0.475783 8.46785 0.316351 8.62221 0.20318C8.77656 0.0900086 8.96297 0.0289917 9.15437 0.0289917C9.34577 0.0289917 9.53218 0.0900086 9.68653 0.20318C9.84089 0.316351 9.95514 0.475783 10.0127 0.658319L11.5627 5.42498H16.5627C16.7609 5.41749 16.9562 5.4751 17.1186 5.58902C17.281 5.70293 17.4017 5.86689 17.4621 6.05583C17.5226 6.24478 17.5195 6.44832 17.4534 6.63536C17.3873 6.82241 17.2618 6.98266 17.096 7.09165L13.0377 10.0333L14.5877 14.8083C14.649 14.9902 14.6505 15.1869 14.5921 15.3698C14.5337 15.5526 14.4183 15.7119 14.2629 15.8246C14.1075 15.9372 13.9201 15.9971 13.7282 15.9957C13.5362 15.9943 13.3498 15.9316 13.196 15.8166L9.12937 12.8416L5.07104 15.7917C4.91729 15.9066 4.73084 15.9693 4.53891 15.9707C4.34697 15.9721 4.15961 15.9122 4.00418 15.7996C3.84875 15.6869 3.7334 15.5276 3.67496 15.3448C3.61652 15.1619 3.61807 14.9652 3.67937 14.7833L5.22937 10.0083L1.17104 7.06665C1.00527 6.95766 0.879747 6.79741 0.813638 6.61036C0.747528 6.42332 0.744471 6.21978 0.804934 6.03083C0.865396 5.84189 0.986052 5.67793 1.14847 5.56402C1.31088 5.4501 1.50613 5.39249 1.70437 5.39998H6.70437L8.29604 0.658319Z" fill="#151515"/>
</svg>
