<svg width="14" height="17" viewBox="0 0 14 17" fill="none" xmlns="http://www.w3.org/2000/svg">
<path d="M5.16211 1.83334H2.49544C1.75906 1.83334 1.16211 2.4303 1.16211 3.16668V5.83334C1.16211 6.56972 1.75906 7.16668 2.49544 7.16668H5.16211C5.89849 7.16668 6.49544 6.56972 6.49544 5.83334V3.16668C6.49544 2.4303 5.89849 1.83334 5.16211 1.83334Z" stroke="#E6704B" stroke-width="2" stroke-linecap="round" stroke-linejoin="round"/>
<path d="M5.16211 9.83334H2.49544C1.75906 9.83334 1.16211 10.4303 1.16211 11.1667V13.8333C1.16211 14.5697 1.75906 15.1667 2.49544 15.1667H5.16211C5.89849 15.1667 6.49544 14.5697 6.49544 13.8333V11.1667C6.49544 10.4303 5.89849 9.83334 5.16211 9.83334Z" stroke="#E6704B" stroke-width="2" stroke-linecap="round" stroke-linejoin="round"/>
<path d="M12.4961 11.1667H8.49609" stroke="#E6704B" stroke-width="2" stroke-linecap="round" stroke-linejoin="round"/>
<path d="M11.1628 13.8333H8.49609" stroke="#E6704B" stroke-width="2" stroke-linecap="round" stroke-linejoin="round"/>
<path d="M11.1628 5.83334H8.49609" stroke="#E6704B" stroke-width="2" stroke-linecap="round" stroke-linejoin="round"/>
<path d="M12.4961 3.16669H8.49609" stroke="#E6704B" stroke-width="2" stroke-linecap="round" stroke-linejoin="round"/>
</svg>
