<svg width="17" height="16" viewBox="0 0 17 16" fill="none" xmlns="http://www.w3.org/2000/svg">
<path fill-rule="evenodd" clip-rule="evenodd" d="M7.81945 2.12663C7.8655 1.9806 7.9569 1.85306 8.08038 1.76252C8.20387 1.67198 8.353 1.62317 8.50611 1.62317C8.65923 1.62317 8.80836 1.67198 8.93184 1.76252C9.05533 1.85306 9.14673 1.9806 9.19278 2.12663L10.4328 5.93996H14.4328C14.5914 5.93397 14.7476 5.98006 14.8775 6.07119C15.0074 6.16232 15.104 6.29348 15.1523 6.44464C15.2007 6.5958 15.1983 6.75863 15.1454 6.90827C15.0925 7.0579 14.9921 7.18611 14.8594 7.2733L11.6128 9.62663L12.8528 13.4466C12.9018 13.5921 12.9031 13.7495 12.8563 13.8958C12.8096 14.042 12.7173 14.1695 12.5929 14.2596C12.4686 14.3497 12.3187 14.3977 12.1652 14.3966C12.0116 14.3954 11.8624 14.3452 11.7394 14.2533L8.48611 11.8733L5.23945 14.2333C5.11645 14.3252 4.96729 14.3754 4.81374 14.3766C4.66019 14.3777 4.5103 14.3297 4.38596 14.2396C4.26162 14.1495 4.16933 14.022 4.12259 13.8758C4.07584 13.7295 4.07707 13.5721 4.12611 13.4266L5.36611 9.60663L2.11945 7.2533C1.98684 7.16611 1.88641 7.0379 1.83353 6.88827C1.78064 6.73863 1.77819 6.5758 1.82656 6.42464C1.87493 6.27348 1.97146 6.14232 2.10139 6.05119C2.23133 5.96006 2.38752 5.91397 2.54611 5.91996H6.54611L7.81945 2.12663Z" stroke="#D1D1D1" stroke-linecap="round" stroke-linejoin="round"/>
</svg>
