<svg width="19" height="18" viewBox="0 0 19 18" fill="none" xmlns="http://www.w3.org/2000/svg">
<path fill-rule="evenodd" clip-rule="evenodd" d="M8.29604 1.65832C8.3536 1.47578 8.46785 1.31635 8.62221 1.20318C8.77656 1.09001 8.96297 1.02899 9.15437 1.02899C9.34577 1.02899 9.53218 1.09001 9.68653 1.20318C9.84089 1.31635 9.95514 1.47578 10.0127 1.65832L11.5627 6.42498H16.5627C16.7609 6.41749 16.9562 6.4751 17.1186 6.58902C17.281 6.70293 17.4017 6.86689 17.4621 7.05583C17.5226 7.24478 17.5195 7.44832 17.4534 7.63536C17.3873 7.82241 17.2618 7.98266 17.096 8.09165L13.0377 11.0333L14.5877 15.8083C14.649 15.9902 14.6505 16.1869 14.5921 16.3698C14.5337 16.5526 14.4183 16.7119 14.2629 16.8246C14.1075 16.9372 13.9201 16.9971 13.7282 16.9957C13.5362 16.9943 13.3498 16.9316 13.196 16.8166L9.12937 13.8416L5.07104 16.7917C4.91729 16.9066 4.73084 16.9693 4.53891 16.9707C4.34697 16.9721 4.15961 16.9122 4.00418 16.7996C3.84875 16.6869 3.7334 16.5276 3.67496 16.3448C3.61653 16.1619 3.61807 15.9652 3.67937 15.7833L5.22937 11.0083L1.17104 8.06665C1.00527 7.95766 0.879747 7.79741 0.813638 7.61036C0.747528 7.42332 0.744471 7.21978 0.804934 7.03083C0.865396 6.84189 0.986052 6.67793 1.14847 6.56402C1.31088 6.4501 1.50613 6.39249 1.70437 6.39998H6.70437L8.29604 1.65832Z" stroke="#EBEBEB" stroke-width="1.5" stroke-linecap="round" stroke-linejoin="round"/>
</svg>
